<svg width="70" height="70" viewBox="0 0 70 70" fill="none" xmlns="http://www.w3.org/2000/svg">
<rect opacity="0.75" x="1.30862" y="1.40903" width="67.208" height="67.208" rx="11.5" fill="#F52A3D" stroke="#E7E7E7"/>
<path d="M34.9126 29.763C32.0391 29.763 29.6626 32.1413 29.6626 35.013C29.6626 37.8865 32.0391 40.263 34.9126 40.263C37.7844 40.263 40.1626 37.8865 40.1626 35.013C40.1626 32.1413 37.7844 29.763 34.9126 29.763Z" fill="white"/>
<path d="M34.9126 22.763C21.6266 22.763 17.6337 34.3428 17.5971 34.46L17.4126 35.013L17.5954 35.566C17.6337 35.6833 21.6266 47.263 34.9126 47.263C48.1986 47.263 52.1916 35.6833 52.2281 35.566L52.4126 35.013L52.2299 34.46C52.1916 34.3428 48.1986 22.763 34.9126 22.763ZM34.9126 43.763C25.5987 43.763 21.9904 37.0325 21.1166 35.013C21.9939 32.9865 25.6039 26.263 34.9126 26.263C44.2266 26.263 47.8349 32.9935 48.7086 35.013C47.8314 37.0395 44.2214 43.763 34.9126 43.763Z" fill="white"/>
</svg>
