<svg width="70" height="69" viewBox="0 0 70 69" fill="none" xmlns="http://www.w3.org/2000/svg">
<rect opacity="0.75" x="0.5" y="1.20239" width="68.3667" height="66.7958" rx="11.5" fill="#63CC32" stroke="#E7E7E7"/>
<path d="M38.1833 27.6003C38.1833 29.6163 36.6976 31.1003 34.6833 31.1003C32.6708 31.1003 31.1833 29.6163 31.1833 27.6003C31.1833 25.5843 32.6708 24.1003 34.6833 24.1003C36.6976 24.1003 38.1833 25.5843 38.1833 27.6003Z" fill="white"/>
<path d="M27.6833 39.1503C27.6833 35.6713 30.8176 32.8503 34.6833 32.8503C38.5491 32.8503 41.6833 35.6713 41.6833 39.1503V39.8258H27.6833V39.1503Z" fill="white"/>
<path fill-rule="evenodd" clip-rule="evenodd" d="M22.4333 17.1003H46.9333C48.8636 17.1003 50.4333 18.67 50.4333 20.6003V43.3503C50.4333 45.2805 48.8636 46.8503 46.9333 46.8503H39.9333L34.6833 52.1003L29.4333 46.8503H22.4333C20.5031 46.8503 18.9333 45.2805 18.9333 43.3503V20.6003C18.9333 18.67 20.5031 17.1003 22.4333 17.1003ZM34.6833 46.8503L38.1833 43.3503H46.9369L46.9333 20.6003H22.4333V43.3503H31.1833L34.6833 46.8503Z" fill="white"/>
</svg>
