<svg width="73" height="72" viewBox="0 0 73 72" fill="none" xmlns="http://www.w3.org/2000/svg">
<rect opacity="0.75" x="1.45056" y="0.878326" width="70.1701" height="70.2694" rx="11.5" fill="#F39915" stroke="#E7E7E7"/>
<path fill-rule="evenodd" clip-rule="evenodd" d="M37.9006 22.1005L39.1606 24.638H47.9106C48.8731 24.638 49.6606 25.4255 49.6606 26.388V40.388C49.6606 41.3505 48.8731 42.138 47.9106 42.138H38.4781C37.8306 42.138 37.2181 41.7705 36.9206 41.1755L35.6606 38.638H26.9106V49.138C26.9106 50.1005 26.1231 50.888 25.1606 50.888C24.1981 50.888 23.4106 50.1005 23.4106 49.138V22.888C23.4106 21.9255 24.1981 21.138 25.1606 21.138H36.3256C36.9906 21.138 37.6031 21.5055 37.9006 22.1005ZM39.1606 38.638H46.1606V28.138H37.4106L35.6606 24.638H26.9106V35.138H37.4106L39.1606 38.638Z" fill="white"/>
</svg>
